<?xml version="1.0" standalone="no"?><!DOCTYPE svg PUBLIC "-//W3C//DTD SVG 1.1//EN" "http://www.w3.org/Graphics/SVG/1.1/DTD/svg11.dtd"><svg t="1587540804743" class="icon" viewBox="0 0 1024 1024" version="1.1" xmlns="http://www.w3.org/2000/svg" p-id="22941" xmlns:xlink="http://www.w3.org/1999/xlink" width="200" height="200"><defs><style type="text/css"></style></defs><path d="M293.44 529.28a85.12 85.12 0 0 1-81.28-60.16 84.8 84.8 0 1 1 105.92 56.64 80.64 80.64 0 0 1-24.64 3.52zM250.56 457.6a44.8 44.8 0 1 0 85.76-26.24 44.48 44.48 0 0 0-56-29.76 44.8 44.8 0 0 0-29.76 56zM493.44 529.28a84.48 84.48 0 0 1-80.64-59.52 82.88 82.88 0 0 1 5.76-64 85.12 85.12 0 0 1 114.56-35.84 85.12 85.12 0 0 1 35.84 114.56 84.8 84.8 0 0 1-49.92 41.6 87.04 87.04 0 0 1-25.6 3.2z m-39.36-105.6a44.16 44.16 0 0 0-3.2 34.24 42.88 42.88 0 0 0 22.08 26.24 44.16 44.16 0 0 0 34.24 3.2 44.8 44.8 0 0 0 26.24-22.08 45.44 45.44 0 0 0 3.2-34.24 46.08 46.08 0 0 0-22.08-26.24 44.48 44.48 0 0 0-60.48 18.88zM698.88 529.28h-8.32a84.8 84.8 0 0 1-45.44-150.08 83.52 83.52 0 0 1 62.08-18.88 84.8 84.8 0 0 1-8.32 169.28z m0-128a43.84 43.84 0 0 0-28.48 10.24 44.8 44.8 0 0 0 24 79.36A45.76 45.76 0 0 0 743.68 448a45.76 45.76 0 0 0-10.24-32 42.88 42.88 0 0 0-30.08-16z" fill="#0d85ff" p-id="22942"></path><path d="M340.48 904.96a20.16 20.16 0 0 1-20.16-20.16 20.16 20.16 0 0 1 20.16-20.16h79.68V736H139.52a38.72 38.72 0 0 1-38.72-38.4V138.24a38.72 38.72 0 0 1 38.72-38.4h718.4A38.72 38.72 0 0 1 896 138.24v560.64A38.72 38.72 0 0 1 857.92 736H576v128h80a20.16 20.16 0 0 1 20.16 20.16 20.16 20.16 0 0 1-20.16 20.16zM460.8 864h75.84v-128H460.8z m-320-168h714.88V140.48H141.76z" fill="#0d85ff" p-id="22943"></path></svg>