<?xml version="1.0" encoding="utf-8"?>
<!-- Generator: Adobe Illustrator 22.1.0, SVG Export Plug-In . SVG Version: 6.00 Build 0)  -->
<svg version="1.1" id="图层_1" xmlns="http://www.w3.org/2000/svg" xmlns:xlink="http://www.w3.org/1999/xlink" x="0px" y="0px"
	 viewBox="0 0 200 200" style="enable-background:new 0 0 200 200;" xml:space="preserve">
<style type="text/css">
	.st0{fill:#0D85FF;}
</style>
<path class="st0" d="M109.3,177.8H47.9c-9.4,0-15.6-4.8-15.6-16.4V37.6c0-8.2,7.4-15.6,15.6-15.6H152c7.7,0,15.6,7.4,15.6,15.6v74.1
	c0,1.9-2.7,3.8-4.7,3.8c-1.9,0-4.7-1.9-4.7-3.8V37.6c0-2.9-2.9-5.8-5.8-5.8H47.9c-2.9,0-5.8,2.9-5.8,5.8v124.8c0,3.3,3,5.8,5.8,5.8
	h60.5c1.9,0,3.8,2.9,3.8,4.9C112.2,175.4,111.2,177.8,109.3,177.8L109.3,177.8z"/>
<path class="st0" d="M106.7,132.7h-44c-1.9,0-3.8-2.7-3.8-4.7c0-1.9,1.9-4.7,3.8-4.7h44c1.9,0,3.9,2,3.8,5.1
	C110.5,130.9,108.6,132.7,106.7,132.7L106.7,132.7z M136.7,99H61.8c-1.9,0-3.8-2.7-3.8-4.7c0-1.9,1.9-4.7,3.8-4.7h75.4
	c1.9,0,3.8,2.7,3.8,4.7C141,96.3,138.6,99,136.7,99L136.7,99z M137.6,65.3H62.8c-1.9,0-3.8-2.7-3.8-4.7c0-1.9,1.9-4.7,3.8-4.7h75.4
	c1.9,0,3.8,2.7,3.8,4.7C142,62.6,140,65.3,137.6,65.3L137.6,65.3z M121.6,176.5l-0.4-0.4c-1.7-1.7-1.7-4.6,0-6.3l38.4-38.4
	c1.7-1.7,4.6-1.7,6.3,0l0.4,0.4c1.7,1.7,1.7,4.6,0,6.3l-38.4,38.4C126.2,178.2,123.3,178.2,121.6,176.5L121.6,176.5z"/>
<path class="st0" d="M166.3,176.1l-0.4,0.4c-1.7,1.7-4.6,1.7-6.3,0l-38.4-38.4c-1.7-1.7-1.7-4.6,0-6.3l0.4-0.4
	c1.7-1.7,4.6-1.7,6.3,0l38.4,38.4C168,171.5,168,174.4,166.3,176.1z"/>
</svg>
