<?xml version="1.0" standalone="no"?><!DOCTYPE svg PUBLIC "-//W3C//DTD SVG 1.1//EN" "http://www.w3.org/Graphics/SVG/1.1/DTD/svg11.dtd"><svg t="1587541731324" class="icon" viewBox="0 0 1024 1024" version="1.1" xmlns="http://www.w3.org/2000/svg" p-id="27459" xmlns:xlink="http://www.w3.org/1999/xlink" width="200" height="200"><defs><style type="text/css"></style></defs><path d="M838.0361 238.282988c-14.7264-11.041474-34.975583-22.081924-51.54291-31.283494-18.408255-9.200546-34.977629-20.243043-51.54291-29.444613C699.972651 157.309792 664.999115 137.068795 630.022509 116.824729c-16.567327-9.201569-34.974559-18.402115-51.541887-29.444613-14.727423-9.201569-40.497343-16.563234-66.273403-16.563234l-3.678786 0c-22.090111 0-51.544957 9.201569-64.427358 16.563234-16.569374 11.042497-34.978652 20.243043-51.543933 31.283494-34.977629 20.244067-69.954235 38.645159-104.928794 58.889225-16.567327 11.042497-34.973536 20.244067-51.543933 31.284517-16.565281 9.201569-34.974559 18.403139-51.541887 29.444613-27.612894 18.402115-58.907645 60.72913-58.907645 104.897072l0 303.645648c0 44.164872 31.29475 88.333838 58.907645 104.896048 31.29475 22.081924 69.951165 40.485063 103.08582 60.730153 34.974559 20.24202 69.951165 38.646182 104.928794 60.730153 16.565281 9.199523 34.974559 18.401092 51.543933 29.443589 14.7264 9.201569 40.495296 18.403139 64.427358 18.403139l11.042497 0c38.658462 0 86.521562-33.128515 114.13241-49.691749 33.133631-20.239973 68.111261-38.644135 103.087866-58.886155 33.132608-18.403139 71.792093-38.648229 103.083773-58.888202 25.774013-18.403139 58.909691-60.728106 58.909691-104.897072L898.784672 341.339132C898.785695 297.17426 865.650017 254.847246 838.0361 238.282988L838.0361 238.282988zM850.922594 630.262474c0 38.646182-29.451776 75.452459-51.54291 90.173742-27.612894 18.401092-60.746526 36.805254-90.200348 53.366442-31.295773 18.403139-60.746526 33.128515-90.201371 51.529607-23.928992 14.721283-66.267263 44.166919-101.243869 44.166919l-9.203616 0c-22.090111 0-42.339294-9.201569-55.224766-16.562211-16.566304-9.201569-31.293727-16.565281-46.02115-27.605731-29.450752-16.560164-60.746526-33.126468-92.041276-51.529607-29.454846-16.562211-62.58643-34.965349-90.198302-53.366442-23.932062-14.721283-51.543933-53.366442-51.543933-92.010577L173.501054 361.581152c0-38.647205 27.611871-75.450413 51.543933-92.012623 14.7264-9.201569 31.29168-16.563234 46.01808-25.764803 12.886495-9.201569 29.452799-18.401092 44.180222-27.603685 31.295773-16.564257 62.591547-33.125445 92.041276-51.52756 14.727423-9.201569 29.454846-16.564257 44.180222-25.764803 12.886495-9.202593 36.81651-16.562211 57.066717-16.562211l3.678786 0c22.091134 0 44.184315 5.520737 58.908668 14.722306 14.727423 9.201569 29.453822 18.403139 44.178175 25.76378 31.295773 18.402115 60.749596 34.966373 92.042299 53.368488 14.727423 9.201569 29.454846 18.401092 46.023196 25.762757 12.883425 7.362688 31.292704 18.403139 44.179199 27.605731 23.932062 14.721283 53.383838 53.366442 53.383838 90.173742L850.925664 630.262474zM516.377192 645.036969l215.540008-215.538985c6.971785-6.971785 8.887414-16.360619 4.276397-20.970614l-16.695241-16.696264c-4.608971-4.608971-13.998829-2.695389-20.969591 4.27742L488.917794 605.718475 364.061135 480.863862c-4.608971-4.609994-12.084223-4.608971-16.693194 0l-16.695241 16.695241c-4.609994 4.609994-4.609994 12.084223 0 16.693194l150.257166 150.258189c4.608971 4.608971 12.082176 4.608971 16.692171 0l16.696264-16.697287C515.160481 646.974088 515.84405 646.036739 516.377192 645.036969z" p-id="27460" fill="#0d85ff"></path></svg>