<?xml version="1.0" standalone="no"?><!DOCTYPE svg PUBLIC "-//W3C//DTD SVG 1.1//EN" "http://www.w3.org/Graphics/SVG/1.1/DTD/svg11.dtd"><svg t="1597226573363" class="icon" viewBox="0 0 1024 1024" version="1.1" xmlns="http://www.w3.org/2000/svg" p-id="8405" xmlns:xlink="http://www.w3.org/1999/xlink" width="200" height="200"><defs><style type="text/css"></style></defs><path d="M810.666667 128l-597.333333 0c-47.146667 0-85.333333 38.186667-85.333333 85.333333l0 597.333333c0 47.146667 38.186667 85.333333 85.333333 85.333333l597.333333 0c47.146667 0 85.333333-38.186667 85.333333-85.333333l0-597.333333c0-47.146667-38.186667-85.333333-85.333333-85.333333zM384 725.333333l-85.333333 0 0-298.666667 85.333333 0 0 298.666667zM554.666667 725.333333l-85.333333 0 0-426.666667 85.333333 0 0 426.666667zM725.333333 725.333333l-85.333333 0 0-170.666667 85.333333 0 0 170.666667z" p-id="8406"></path></svg>