<?xml version="1.0" standalone="no"?><!DOCTYPE svg PUBLIC "-//W3C//DTD SVG 1.1//EN" "http://www.w3.org/Graphics/SVG/1.1/DTD/svg11.dtd"><svg t="1597215966375" class="icon" viewBox="0 0 1024 1024" version="1.1" xmlns="http://www.w3.org/2000/svg" p-id="6778" xmlns:xlink="http://www.w3.org/1999/xlink" width="200" height="200"><defs><style type="text/css"></style></defs><path d="M810.666667 128h-178.56c-17.493333-49.493333-64.426667-85.333333-120.106667-85.333333s-102.613333 35.84-120.106667 85.333333H213.333333c-47.146667 0-85.333333 38.186667-85.333333 85.333333v597.333334c0 47.146667 38.186667 85.333333 85.333333 85.333333h597.333334c47.146667 0 85.333333-38.186667 85.333333-85.333333V213.333333c0-47.146667-38.186667-85.333333-85.333333-85.333333zM512 128c23.466667 0 42.666667 18.986667 42.666667 42.666667s-19.2 42.666667-42.666667 42.666666-42.666667-18.986667-42.666667-42.666666 19.2-42.666667 42.666667-42.666667z m0 170.666667c70.613333 0 128 57.386667 128 128 0 70.826667-57.386667 128-128 128s-128-57.173333-128-128c0-70.613333 57.386667-128 128-128z m256 512H256v-59.733334c0-85.333333 170.666667-132.266667 256-132.266666s256 46.933333 256 132.266666V810.666667z" p-id="6779"></path></svg>