<?xml version="1.0" encoding="utf-8"?>
<!-- Generator: Adobe Illustrator 22.1.0, SVG Export Plug-In . SVG Version: 6.00 Build 0)  -->
<svg version="1.1" id="图层_1" xmlns="http://www.w3.org/2000/svg" xmlns:xlink="http://www.w3.org/1999/xlink" x="0px" y="0px"
	 viewBox="0 0 48 48" style="enable-background:new 0 0 48 48;" xml:space="preserve">
<path d="M14.5,40.8c0.6,0,1.1,0.5,1.1,1.1c0,0.6-0.5,1.1-1.1,1.1l0,0H9.9c-3,0-5.4-2.4-5.4-5.4V9.4c0-3,2.4-5.4,5.4-5.4h25.5
	c3,0,5.4,2.4,5.4,5.4v1.3c0,0.6-0.5,1.1-1.1,1.1c-0.6,0-1.1-0.5-1.1-1.1V9.4c0-1.8-1.5-3.3-3.3-3.3H9.9c-1.8,0-3.3,1.5-3.3,3.3v28.1
	c0,1.8,1.5,3.3,3.3,3.3C9.9,40.8,14.5,40.8,14.5,40.8z M36.8,34.9l6.8,6.7c0.4,0.4,0.5,1.1,0.1,1.5c-0.4,0.4-1.1,0.5-1.5,0.1
	c0,0,0,0-0.1-0.1l-6.8-6.7c-5.9,5.1-14.8,4.4-19.9-1.5S10.9,20.1,16.9,15s14.8-4.4,19.9,1.5C41.3,21.8,41.3,29.6,36.8,34.9
	C36.8,34.9,36.8,34.9,36.8,34.9z M26,13.8c-6.6-0.1-12,5.2-12.1,11.8c-0.1,6.6,5.2,12,11.8,12.1c0.1,0,0.2,0,0.4,0
	c6.6-0.1,11.9-5.5,11.8-12.1C37.7,19.1,32.5,13.9,26,13.8z M22.3,17.3c0.5-0.3,1.2-0.1,1.5,0.4c0.3,0.5,0.1,1.2-0.4,1.5
	c-1.8,1-3.1,2.3-3.8,3.9c-0.3,0.5-0.9,0.8-1.4,0.5c-0.5-0.3-0.8-0.9-0.5-1.4C18.6,20.2,20.1,18.5,22.3,17.3z M33.8,25.6
	c0.1-0.6,0.6-1,1.2-0.9c0.6,0.1,1,0.6,0.9,1.1c-0.5,5.8-3.8,9.1-9.5,9.8c-0.6,0.1-1.1-0.4-1.2-1c-0.1-0.6,0.4-1.1,1-1.2l0,0
	C30.9,32.9,33.4,30.4,33.8,25.6L33.8,25.6z"/>
</svg>
