<?xml version="1.0" standalone="no"?><!DOCTYPE svg PUBLIC "-//W3C//DTD SVG 1.1//EN" "http://www.w3.org/Graphics/SVG/1.1/DTD/svg11.dtd"><svg t="1591337489951" class="icon" viewBox="0 0 1024 1024" version="1.1" xmlns="http://www.w3.org/2000/svg" p-id="13462" xmlns:xlink="http://www.w3.org/1999/xlink" width="48" height="48"><defs><style type="text/css"></style></defs><path d="M512.18573 247.794619c-68.133773 0-132.203998 26.27748-180.384323 73.947176-48.198745 47.706535-74.731028 111.157659-74.731028 178.617074s26.532283 130.8737 74.731028 178.580235c48.180326 47.669696 112.25055 73.947176 180.384323 73.947176s132.203998-26.27748 180.384323-73.947176c48.198745-47.706535 74.730005-111.12082 74.730005-178.580235S740.767775 369.447307 692.570054 321.740772C644.389728 274.071076 580.319503 247.794619 512.18573 247.794619zM512.18573 699.602725c-110.992907 0-201.303772-89.36226-201.303772-199.24488s90.310865-199.281719 201.303772-199.281719c110.99393 0 201.304795 89.399099 201.304795 199.281719S623.178637 699.602725 512.18573 699.602725zM515.192204 182.557826c14.851243 0 26.89658-11.917424 26.89658-26.641777L542.088784 91.481528c0-14.724353-12.045337-26.641777-26.89658-26.641777-14.869662 0-26.915 11.917424-26.915 26.641777l0 64.434521C488.277204 170.640402 500.322541 182.557826 515.192204 182.557826zM289.087583 272.831852c6.887874 0 13.775748-2.623757 19.024286-7.835456 10.531867-10.386558 10.531867-27.260877 0-37.648458l-46.030359-45.592384c-10.514471-10.386558-27.552519-10.386558-38.048571 0-10.514471 10.423397-10.514471 27.260877 0 37.684274l46.029336 45.556569C275.329231 270.208095 282.198685 272.831852 289.087583 272.831852zM193.691909 441.608813l-65.10888 0c-14.869662 0-26.915 11.917424-26.915 26.641777 0 14.72333 12.045337 26.641777 26.915 26.641777l65.10888 0c14.851243 0 26.915-11.917424 26.915-26.641777C220.606909 453.526237 208.543152 441.608813 193.691909 441.608813zM895.787408 447.549106l-65.10888 0c-14.851243 0-26.915 11.917424-26.915 26.641777s12.063757 26.641777 26.915 26.641777l65.10888 0c14.869662 0 26.915-11.917424 26.915-26.641777S910.657071 447.549106 895.787408 447.549106zM739.511155 277.023314c6.887874 0 13.776771-2.623757 19.024286-7.79964l46.048779-45.593408c10.513448-10.386558 10.513448-27.260877 0-37.684274-10.514471-10.386558-27.5341-10.386558-38.066991 0l-46.029336 45.592384c-10.496052 10.386558-10.496052 27.260877 0 37.684274C725.735407 274.399557 732.622258 277.023314 739.511155 277.023314zM611.497597 805.985638 412.87284 805.985638c-14.869662 0-26.913976 11.954263-26.913976 26.641777 0 14.724353 12.045337 26.640754 26.913976 26.640754l198.62578 0c14.869662 0 26.915-11.917424 26.915-26.640754C638.412596 817.939901 626.368282 805.985638 611.497597 805.985638zM575.544757 907.23053 448.82568 907.23053c-14.869662 0-26.915 11.917424-26.915 26.641777 0 14.687514 12.045337 26.640754 26.915 26.640754l126.719076 0c14.868639 0 26.915-11.954263 26.915-26.640754C602.459756 919.147954 590.414419 907.23053 575.544757 907.23053z" p-id="13463"></path><path d="M512.18573 247.794619c-68.133773 0-132.203998 26.27748-180.384323 73.947176-48.198745 47.706535-74.731028 111.157659-74.731028 178.617074s26.532283 130.8737 74.731028 178.580235c48.180326 47.669696 112.25055 73.947176 180.384323 73.947176s132.203998-26.27748 180.384323-73.947176c48.198745-47.706535 74.730005-111.12082 74.730005-178.580235S740.767775 369.447307 692.570054 321.740772C644.389728 274.071076 580.319503 247.794619 512.18573 247.794619zM512.18573 699.602725c-110.992907 0-201.303772-89.36226-201.303772-199.24488s90.310865-199.281719 201.303772-199.281719c110.99393 0 201.304795 89.399099 201.304795 199.281719S623.178637 699.602725 512.18573 699.602725zM515.192204 182.557826c14.851243 0 26.89658-11.917424 26.89658-26.641777L542.088784 91.481528c0-14.724353-12.045337-26.641777-26.89658-26.641777-14.869662 0-26.915 11.917424-26.915 26.641777l0 64.434521C488.277204 170.640402 500.322541 182.557826 515.192204 182.557826zM289.087583 272.831852c6.887874 0 13.775748-2.623757 19.024286-7.835456 10.531867-10.386558 10.531867-27.260877 0-37.648458l-46.030359-45.592384c-10.514471-10.386558-27.552519-10.386558-38.048571 0-10.514471 10.423397-10.514471 27.260877 0 37.684274l46.029336 45.556569C275.329231 270.208095 282.198685 272.831852 289.087583 272.831852zM193.691909 441.608813l-65.10888 0c-14.869662 0-26.915 11.917424-26.915 26.641777 0 14.72333 12.045337 26.641777 26.915 26.641777l65.10888 0c14.851243 0 26.915-11.917424 26.915-26.641777C220.606909 453.526237 208.543152 441.608813 193.691909 441.608813zM895.787408 447.549106l-65.10888 0c-14.851243 0-26.915 11.917424-26.915 26.641777s12.063757 26.641777 26.915 26.641777l65.10888 0c14.869662 0 26.915-11.917424 26.915-26.641777S910.657071 447.549106 895.787408 447.549106zM739.511155 277.023314c6.887874 0 13.776771-2.623757 19.024286-7.79964l46.048779-45.593408c10.513448-10.386558 10.513448-27.260877 0-37.684274-10.514471-10.386558-27.5341-10.386558-38.066991 0l-46.029336 45.592384c-10.496052 10.386558-10.496052 27.260877 0 37.684274C725.735407 274.399557 732.622258 277.023314 739.511155 277.023314zM611.497597 805.985638 412.87284 805.985638c-14.869662 0-26.913976 11.954263-26.913976 26.641777 0 14.724353 12.045337 26.640754 26.913976 26.640754l198.62578 0c14.869662 0 26.915-11.917424 26.915-26.640754C638.412596 817.939901 626.368282 805.985638 611.497597 805.985638zM575.544757 907.23053 448.82568 907.23053c-14.869662 0-26.915 11.917424-26.915 26.641777 0 14.687514 12.045337 26.640754 26.915 26.640754l126.719076 0c14.868639 0 26.915-11.954263 26.915-26.640754C602.459756 919.147954 590.414419 907.23053 575.544757 907.23053z" p-id="13464"></path></svg>