<?xml version="1.0" standalone="no"?><!DOCTYPE svg PUBLIC "-//W3C//DTD SVG 1.1//EN" "http://www.w3.org/Graphics/SVG/1.1/DTD/svg11.dtd"><svg t="1591337480592" class="icon" viewBox="0 0 1024 1024" version="1.1" xmlns="http://www.w3.org/2000/svg" p-id="12693" xmlns:xlink="http://www.w3.org/1999/xlink" width="48" height="48"><defs><style type="text/css"></style></defs><path d="M488.96 693.248c14.336 14.336 31.744 14.336 46.08 0l120.832-120.832c11.264-11.264 11.264-29.184 0-40.96-11.264-11.264-29.184-11.264-40.96 0l-75.776 75.776V166.4c0-15.36-12.288-27.648-27.648-27.648s-27.648 12.288-27.648 27.648v440.832l-75.776-75.776c-11.264-11.264-29.184-11.264-40.96 0-11.264 11.264-11.264 29.184 0 40.96l121.856 120.832z" p-id="12694"></path><path d="M763.904 278.016c-14.848-1.024-28.16 10.24-29.184 26.112-1.024 15.36 10.24 28.16 26.112 29.184 66.56 4.608 118.784 59.904 118.784 125.952v244.736c0 70.144-57.344 126.976-126.976 126.976H271.36c-70.144 0-126.976-57.344-126.976-126.976V458.752c0-66.048 52.224-121.344 118.784-125.952 15.36-1.024 26.624-13.824 26.112-29.184s-13.824-26.624-29.184-26.112C164.352 283.648 89.6 363.52 89.6 458.752v244.736c0 100.352 81.408 181.76 181.76 181.76h480.768c100.352 0 181.76-81.408 181.76-181.76V458.752c0.512-95.232-74.24-175.104-169.984-180.736z" p-id="12695"></path></svg>