<?xml version="1.0" standalone="no"?><!DOCTYPE svg PUBLIC "-//W3C//DTD SVG 1.1//EN" "http://www.w3.org/Graphics/SVG/1.1/DTD/svg11.dtd"><svg t="1597218750616" class="icon" viewBox="0 0 1024 1024" version="1.1" xmlns="http://www.w3.org/2000/svg" p-id="7036" xmlns:xlink="http://www.w3.org/1999/xlink" width="200" height="200"><defs><style type="text/css"></style></defs><path d="M707.349943 345.585371l-205.970286 119.6032-202.430171-115.9168c-38.473143-21.9136-71.299657 35.84-32.826515 57.724343l206.204343 118.052572v266.415543a33.206857 33.206857 0 0 0 66.413715 0V523.702857c0-1.111771-0.555886-2.048-0.643658-3.130514l202.079086-117.321143c38.473143-21.855086 5.646629-79.579429-32.826514-57.695086z" fill="#000000" p-id="7037"></path><path d="M886.930286 222.646857L554.8032 28.233143a99.240229 99.240229 0 0 0-100.264229 0L122.587429 222.646857A100.264229 100.264229 0 0 0 73.142857 309.189486v412.642743c0 36.074057 19.309714 69.397943 50.556343 87.157028l332.068571 188.767086a99.1232 99.1232 0 0 0 98.011429 0l332.068571-188.767086a100.205714 100.205714 0 0 0 50.614858-87.186286V309.218743a100.264229 100.264229 0 0 0-49.532343-86.542629z m-16.881372 499.185372c0 11.995429-6.436571 23.113143-16.881371 29.052342l-332.039314 188.767086c-10.122971 5.763657-22.528 5.763657-32.680229 0L156.408686 750.884571a33.411657 33.411657 0 0 1-16.852115-29.052342V309.189486c0-11.8784 6.261029-22.820571 16.501029-28.847543l331.893029-194.413714a33.060571 33.060571 0 0 1 33.411657 0l332.1856 194.442971c10.24 5.9392 16.501029 16.939886 16.501028 28.818286v412.642743z" fill="#000000" p-id="7038"></path></svg>