<?xml version="1.0" standalone="no"?><!DOCTYPE svg PUBLIC "-//W3C//DTD SVG 1.1//EN" "http://www.w3.org/Graphics/SVG/1.1/DTD/svg11.dtd"><svg t="1597218821696" class="icon" viewBox="0 0 1024 1024" version="1.1" xmlns="http://www.w3.org/2000/svg" p-id="7940" xmlns:xlink="http://www.w3.org/1999/xlink" width="200" height="200"><defs><style type="text/css"></style></defs><path d="M895.984641 1023.957335 128.015359 1023.957335C80.870578 1023.957335 42.68544 985.772196 42.68544 938.627415L42.68544 85.370878C42.68544 38.226098 80.870578-0.001707 128.015359-0.001707L895.984641-0.001707C943.086757-0.001707 981.31456 38.226098 981.31456 85.370878L981.31456 938.627415C981.31456 985.772196 943.086757 1023.957335 895.984641 1023.957335ZM895.984641 85.328214 128.015359 85.328214 128.015359 938.67008 895.984641 938.67008 895.984641 85.328214ZM277.342719 469.312854 746.657281 469.312854C758.43281 469.312854 767.98976 478.869805 767.98976 490.645334L767.98976 533.352959C767.98976 545.128488 758.43281 554.68544 746.657281 554.68544L277.342719 554.68544C265.56719 554.68544 256.01024 545.128488 256.01024 533.352959L256.01024 490.645334C256.01024 478.869805 265.56719 469.312854 277.342719 469.312854ZM277.342719 682.68032 746.657281 682.68032C758.43281 682.68032 767.98976 692.237271 767.98976 704.012799L767.98976 746.67776C767.98976 758.453289 758.43281 768.01024 746.657281 768.01024L277.342719 768.01024C265.56719 768.01024 256.01024 758.453289 256.01024 746.67776L256.01024 704.012799C256.01024 692.237271 265.56719 682.68032 277.342719 682.68032ZM746.657281 341.360639 277.342719 341.360639C265.56719 341.360639 256.01024 331.803688 256.01024 320.028159L256.01024 277.320534C256.01024 265.545005 265.56719 255.988053 277.342719 255.988053L746.657281 255.988053C758.43281 255.988053 767.98976 265.545005 767.98976 277.320534L767.98976 320.028159C767.98976 331.803688 758.43281 341.360639 746.657281 341.360639Z" p-id="7941"></path></svg>