<?xml version="1.0" standalone="no"?><!DOCTYPE svg PUBLIC "-//W3C//DTD SVG 1.1//EN" "http://www.w3.org/Graphics/SVG/1.1/DTD/svg11.dtd"><svg t="1597218784085" class="icon" viewBox="0 0 1024 1024" version="1.1" xmlns="http://www.w3.org/2000/svg" p-id="7425" xmlns:xlink="http://www.w3.org/1999/xlink" width="200" height="200"><defs><style type="text/css"></style></defs><path d="M533.5 522.2c99.1-18.3 174.5-105 174.5-209.4 0-117.6-95.7-213.3-213.3-213.3s-213.3 95.7-213.3 213.3c0 63.9 28.8 120.7 73.5 159.8C199.3 536.4 89.3 689.2 89.3 867.5c0 23.6 19.1 42.7 42.7 42.7s42.7-19.1 42.7-42.7c0-188.2 153.1-341.3 341.3-341.3 6.3-0.1 12.1-1.6 17.5-4z m-38.8-337.4c70.6 0 128 57.4 128 128s-57.4 128-128 128-128-57.4-128-128 57.4-128 128-128z m400.8 380.6c-46.2-46.2-118.2-51.7-170.5-15.9-51-35.1-125.8-28.8-170.5 15.9-52.2 52.2-52.2 137.3 0 189.6l139.7 139.7 31.8 29.8L895.5 755c52.2-52.3 52.2-137.3 0-189.6z m-60.4 129.3L725 804.8l-1.3-1.2-108.8-108.9c-19-19-19-49.9 0-68.9 18.4-18.5 50.5-18.4 69 0l41.2 41.1 41.1-41.1c18.4-18.4 50.5-18.5 69 0 18.9 19 18.9 49.9-0.1 68.9z" p-id="7426"></path></svg>