<?xml version="1.0" standalone="no"?><!DOCTYPE svg PUBLIC "-//W3C//DTD SVG 1.1//EN" "http://www.w3.org/Graphics/SVG/1.1/DTD/svg11.dtd"><svg t="1597218812629" class="icon" viewBox="0 0 1024 1024" version="1.1" xmlns="http://www.w3.org/2000/svg" p-id="7811" xmlns:xlink="http://www.w3.org/1999/xlink" width="200" height="200"><defs><style type="text/css"></style></defs><path d="M196.18154 864.647649c-104.807012 0-190.072351-85.795697-190.072351-191.255458a31.762359 31.762359 0 0 1 31.678725-31.862311h316.787251a31.762359 31.762359 0 0 1 31.678725 31.862311c0 105.459761-85.265339 191.255458-190.07235 191.255458z m-122.696415-159.372749a126.533355 126.533355 0 0 0 245.392829 0H73.485125z m756.250518 159.372749c-104.807012 0-190.072351-85.795697-190.07235-191.255458a31.762359 31.762359 0 0 1 31.678725-31.862311h316.787251a31.75012 31.75012 0 0 1 31.678725 31.862311c0 105.459761-85.24494 191.255458-190.072351 191.255458z m-122.676016-159.372749a126.521116 126.521116 0 0 0 245.372431 0H707.059627z m310.300558-44.142151L859.027755 278.846215a0.463044 0.463044 0 0 0-0.020399-0.081593l-0.040796-0.101993-0.020399-0.020398a31.591012 31.591012 0 0 0-3.508526-5.323984 31.958183 31.958183 0 0 0-3.222948-4.814024l-0.203984-0.203984a2592.5171 2592.5171 0 0 0-10.056414-6.772271 0.071394 0.071394 0 0 0-0.040797-0.020398h-0.040797a31.391108 31.391108 0 0 0-12.096255-2.427411l-0.040797-0.020398H544.627117v-37.063904a110.865339 110.865339 0 1 0-63.35745 0V259.059761H196.18154c-0.040797 0-0.040797 0.020398-0.081594 0.020398a31.919426 31.919426 0 0 0-11.973864 2.407012 0.346773 0.346773 0 0 1-0.142789 0.020399l-0.020399 0.020398a30.813833 30.813833 0 0 0-7.404621 4.977211c-0.815936 0.673147-1.835857 0.999522-2.610996 1.754263-0.081594 0.081594-0.183586 0.163187-0.26518 0.244781a33.573737 33.573737 0 0 0-3.222948 4.814024 31.209562 31.209562 0 0 0-3.508526 5.323984l-0.040796 0.122391a0.299857 0.299857 0 0 0-0.040797 0.081593L8.556998 661.132749a31.937785 31.937785 0 0 0 17.032669 41.694343 31.601211 31.601211 0 0 0 41.429164-17.15506l129.162709-311.891634 129.14231 311.891634a31.711363 31.711363 0 1 0 58.482232-24.539283l-140.116654-338.327968h237.580239v637.450199H354.554767a31.87251 31.87251 0 0 0 0 63.74502h316.787251a31.87251 31.87251 0 0 0 0-63.74502h-126.714901v-637.450199h237.580239l-140.096255 338.327968a31.937785 31.937785 0 0 0 17.03267 41.694343 31.601211 31.601211 0 0 0 41.429163-17.15506l129.162709-311.891634 129.142311 311.891634a31.711363 31.711363 0 1 0 58.482231-24.539283zM512.948392 163.432032a47.803665 47.803665 0 1 1 47.528287-47.793466 47.707793 47.707793 0 0 1-47.528287 47.793466z" p-id="7812"></path></svg>