<?xml version="1.0" standalone="no"?><!DOCTYPE svg PUBLIC "-//W3C//DTD SVG 1.1//EN" "http://www.w3.org/Graphics/SVG/1.1/DTD/svg11.dtd"><svg t="1597218831878" class="icon" viewBox="0 0 1024 1024" version="1.1" xmlns="http://www.w3.org/2000/svg" p-id="8069" xmlns:xlink="http://www.w3.org/1999/xlink" width="200" height="200"><defs><style type="text/css"></style></defs><path d="M857.5 845.9h-691c-38.6 0-70-31.9-70-71.1V249.2c0-39.2 31.4-71.1 70-71.1H391.4c37.1 2.1 65.1 33.3 87.6 58.4 8.1 9.1 21.6 24.1 27.6 26.8h351c8.8 0 31.2 2.1 49.7 21.1 13.1 13.4 20.3 31.2 20.3 50.1v440.4c-0.1 39.1-31.5 71-70.1 71z m-691-617.8c-11 0-20 9.5-20 21.1v525.6c0 11.6 9 21.1 20 21.1h691c11 0 20-9.5 20-21.1V334.4c0-5.8-2.2-11.1-6.1-15.2-5.5-5.7-12.6-6-13.9-6H505.4c-24.7 0-43.6-21.1-63.6-43.4-16.1-18-36.2-40.4-52.6-41.8H166.5z" p-id="8070"></path><path d="M666.5 518.3h-115v-115h-80v115h-114v80h114v109h80v-109h115z" p-id="8071"></path></svg>