<?xml version="1.0" standalone="no"?><!DOCTYPE svg PUBLIC "-//W3C//DTD SVG 1.1//EN" "http://www.w3.org/Graphics/SVG/1.1/DTD/svg11.dtd"><svg t="1597218699377" class="icon" viewBox="0 0 1024 1024" version="1.1" xmlns="http://www.w3.org/2000/svg" p-id="6907" xmlns:xlink="http://www.w3.org/1999/xlink" width="200" height="200"><defs><style type="text/css"></style></defs><path d="M585.024 646.784a31.668 31.668 0 0 0-2.752 12.928c0 8.32 3.264 16.256 9.152 22.08l63.104 63.104c22.912 22.912 63.04 23.04 86.08 0l206.976-206.912c23.68-23.808 23.68-62.4-0.064-86.144l-63.104-63.104c-9.408-9.6-24.384-12.352-36.928-5.312L581.376 117.376c2.432-4.544 3.776-9.664 3.776-14.912 0-8.448-3.264-16.32-9.216-22.144l-63.104-63.04c-23.04-23.04-63.104-22.912-86.08 0L219.84 224.192c-23.808 23.744-23.808 62.336 0 86.08l63.104 63.104c9.024 9.152 23.808 11.584 35.008 6.4l75.456 75.392L23.744 824.896C15.04 833.6 10.24 845.12 10.24 857.408c0 12.224 4.8 23.808 13.504 32.384l62.208 62.272c8.704 8.64 20.224 13.44 32.448 13.44s23.808-4.8 32.448-13.504l369.728-369.728 64.448 64.512zM366.208 334.528L535.68 165.12l264.128 264.128-169.536 169.408-109.696-109.76-385.28 385.344c-9.088 8.96-24.704 9.024-33.792-0.064-4.48-4.48-7.04-10.432-7.04-16.768 0-6.4 2.496-12.352 7.04-16.896l377.472-377.536 7.872-7.808-120.64-120.64z m301.184 326.08c0-2.432 0.96-4.736 2.688-6.528l186.56-186.56c1.728-1.728 4.096-2.688 6.528-2.688s4.8 0.96 6.528 2.688l20.992 21.056a9.105 9.105 0 0 1 2.688 6.464c0 2.432-0.96 4.736-2.688 6.528l-186.56 186.56c-3.456 3.456-9.6 3.456-13.056 0l-20.992-21.056a9.105 9.105 0 0 1-2.688-6.464zM500.864 102.464c0 2.432-0.96 4.8-2.688 6.528L311.552 295.616c-3.456 3.456-9.664 3.456-12.992 0l-21.824-21.888c-3.584-3.584-3.584-9.472 0-13.056l186.56-186.56c1.728-1.728 4.096-2.688 6.592-2.688 2.432 0 4.8 0.96 6.464 2.688L498.24 96a9.318 9.318 0 0 1 2.624 6.464z m382.848 758.592H527.36c-71.68 0-129.984 58.304-129.984 129.92V1024h616.384v-33.024c-0.064-71.616-58.304-129.92-130.048-129.92z m-411.136 96.96c11.392-18.944 31.872-30.912 54.72-30.912h356.416c22.912 0 43.392 11.968 54.72 30.912H472.576z" fill="" p-id="6908"></path></svg>