<?xml version="1.0" standalone="no"?><!DOCTYPE svg PUBLIC "-//W3C//DTD SVG 1.1//EN" "http://www.w3.org/Graphics/SVG/1.1/DTD/svg11.dtd"><svg t="1597218804159" class="icon" viewBox="0 0 1024 1024" version="1.1" xmlns="http://www.w3.org/2000/svg" p-id="7680" xmlns:xlink="http://www.w3.org/1999/xlink" width="200" height="200"><defs><style type="text/css"></style></defs><path d="M262.9 326.9l34.8 14.7c-18.6 42.2-45.4 79.4-80.3 111.5-5.8-7.5-14.2-17.3-25.4-29.5 30.8-27.2 54.5-59.5 70.9-96.7z m97.6 126c26.6 32.2 50.5 64.1 71.7 95.8l-33.3 23.1c-4.2-7-8.6-14.3-13.3-21.7L253.2 557c-8.6 0.9-17.3 2.5-26.3 4.7l-15.8-34.3c11.4-6.6 26.7-23.9 45.7-51.8 19-27.9 33.4-51.5 43.3-70.6l37.6 16.8c-28.8 44.6-52.3 77.1-70.6 97.6 33.2-0.8 65.1-1.8 95.7-3.2-9.8-14.1-20.6-28.8-32.4-44.1l30.1-19.2z m9.4-128.6c19.1 38.8 43.7 70.8 73.7 96-12.4 12.4-22 22.4-29 30.2-30-27.8-56-64.6-78-110.5l33.3-15.7zM505.6 451.1l32.8 17.3c-20.5 33-39.7 60.6-57.7 82.6-8.5-6.9-18.5-14.4-30-22.4 20.6-24.4 38.9-50.2 54.9-77.5z m-50.1-47h243.9v36.1h-98.1v84.1c0 14.1-2.5 24-7.4 29.8-4.9 5.8-10.9 9.6-17.8 11.4-7 1.8-24.9 2.7-53.8 2.7-2.9-14.6-5.8-27.3-8.6-38.1 13 1.4 23.7 2 32.3 2 11.3 0 17-4.6 17-13.7v-78.3H455.5v-36z m22.9-69.4h199.2v36.1H478.4v-36.1z m166.7 117.7c20 24.2 39.6 49.5 58.9 76-9.1 5.9-20.2 13.3-33 22.1-15.2-24.9-33.3-51.3-54.1-79.3l28.2-18.8z" p-id="7681"></path><path d="M768 256.1v384c0 17.7-14.3 32-32 32H160c-17.7 0-32-14.3-32-32v-384c0-17.7 14.3-32 32-32h576c17.7 0 32 14.3 32 32z m0-96H128c-35.3 0-64 28.7-64 64v448c0 35.3 28.7 64 64 64h640c35.3 0 64-28.7 64-64v-448c0-35.4-28.7-64-64-64z" p-id="7682"></path><path d="M864 863.9H192c-52.9 0-96-43.1-96-96h64c0 17.6 14.4 32 32 32h672c17.6 0 32-14.4 32-32v-416c0-17.6-14.4-32-32-32v-64c52.9 0 96 43.1 96 96v416c0 53-43.1 96-96 96z" p-id="7683"></path></svg>