<?xml version="1.0" standalone="no"?><!DOCTYPE svg PUBLIC "-//W3C//DTD SVG 1.1//EN" "http://www.w3.org/Graphics/SVG/1.1/DTD/svg11.dtd"><svg t="1597372684837" class="icon" viewBox="0 0 1024 1024" version="1.1" xmlns="http://www.w3.org/2000/svg" p-id="5046" xmlns:xlink="http://www.w3.org/1999/xlink" width="64" height="64"><defs><style type="text/css"></style></defs><path d="M883.8 962.2h-745c-42.2 0-76.5-34.3-76.5-76.5v-745c0-42.2 34.3-76.5 76.5-76.5h745c42.2 0 76.5 34.3 76.5 76.5v745c0 42.2-34.3 76.5-76.5 76.5z m-745-851.4c-16.5 0-29.9 13.4-29.9 29.9v745c0 16.5 13.4 29.9 29.9 29.9h745c16.5 0 29.9-13.4 29.9-29.9v-745c0-16.5-13.4-29.9-29.9-29.9h-745z" p-id="5047"></path><path d="M750.8 825.9H458.1c-42.2 0-76.5-34.3-76.5-76.5V430.1c0-27.5 22.4-49.9 49.9-49.9h319.3c42.2 0 76.5 34.3 76.5 76.5v292.7c0 42.1-34.3 76.5-76.5 76.5zM431.5 426.7c-1.8 0-3.3 1.5-3.3 3.3v319.3c0 16.5 13.4 29.9 29.9 29.9h292.7c16.5 0 29.9-13.4 29.9-29.9V456.7c0-16.5-13.4-29.9-29.9-29.9H431.5z" p-id="5048"></path><path d="M226.7 623h383.1c4.4 0 8-3.6 8-8V231.9c0-4.4-3.6-8-8-8H222.7c-2.2 0-4 1.8-4 4V615c0 4.4 3.5 8 8 8z" fill="#CBCBCB" p-id="5049"></path><path d="M564.5 646.3H271.9c-42.2 0-76.5-34.3-76.5-76.5V250.5c0-27.5 22.4-49.9 49.9-49.9h319.3c42.2 0 76.5 34.3 76.5 76.5v292.7c-0.1 42.1-34.4 76.5-76.6 76.5zM245.3 247.1c-1.8 0-3.3 1.5-3.3 3.3v319.3c0 16.5 13.4 29.9 29.9 29.9h292.7c16.5 0 29.9-13.4 29.9-29.9V277.1c0-16.5-13.4-29.9-29.9-29.9H245.3z" p-id="5050"></path></svg>
