<?xml version="1.0" standalone="no"?><!DOCTYPE svg PUBLIC "-//W3C//DTD SVG 1.1//EN" "http://www.w3.org/Graphics/SVG/1.1/DTD/svg11.dtd"><svg class="icon" width="64px" height="64.00px" viewBox="0 0 1024 1024" version="1.1" xmlns="http://www.w3.org/2000/svg"><path d="M892.854857 465.432381c0-4.656762 6.339048-4.656762 6.339048-4.656762s5.266286-0.609524 6.826666-1.170286c1.072762-0.585143 5.290667-4.047238 9.484191-6.948571 4.217905-3.486476 8.43581-6.948571 9.459809-8.094476 1.584762-1.145905 5.290667 2.31619 8.43581 4.632381 0 0 2.657524-8.070095 4.217905-8.070096 1.072762 0 10.020571-5.802667 11.093333-12.190476 1.048381-6.41219 1.048381-36.547048 3.705905-36.547047 2.56-0.585143 19.431619-2.901333 19.431619-2.901334s6.875429-4.047238 14.238476-11.580952c0.512-0.609524 1.584762-1.755429 2.633143-3.486476 6.339048-9.313524 12.678095-29.013333 14.750476-32.426667 3.169524-4.681143 3.169524-14.506667 3.169524-18.553905 0-3.510857 3.169524-5.802667 6.290286-7.558095l3.169523-1.755429c4.217905-1.731048 7.363048-14.482286 6.851048-14.482285-11.068952 4.632381-23.161905 9.849905-26.331429 12.141714-5.802667 3.510857-17.895619 10.459429-25.283047 12.751238-7.363048 2.29181-16.822857 2.901333-19.480381-4.632381-2.633143-6.972952-1.584762-18.553905-3.169524-23.210666-1.560381-4.047238-7.875048-6.948571-10.50819-9.264762-3.169524-1.755429-3.705905-5.217524-8.43581-5.217524-4.729905-0.609524-23.186286-2.29181-26.331428-15.09181-3.169524-12.751238-7.387429-67.803429-15.286858-74.166857-7.875048-5.802667-8.94781-8.704-14.726095-8.704a22.77181 22.77181 0 0 1-12.678095-3.486476c-2.633143-1.657905-10.556952-9.752381-18.456381-9.752381-7.875048 0-21.040762 2.901333-25.258667 5.193143-1.072762 1.145905-4.754286 3.486476-7.899428 5.802667-5.802667 5.193143-11.580952 10.435048-9.45981 12.141714 3.169524 2.29181 7.363048 6.38781 7.363048 9.849905 0 3.486476-14.726095 19.139048-16.335238 23.161904-2.072381 4.071619-16.310857 31.914667-21.601524 35.961905-2.072381 1.145905-7.875048 5.778286-14.214095 10.435048-0.512 0-12.117333-5.802667-24.234667-10.99581-0.487619 0-11.580952 24.33219-14.214095 29.549714-2.096762 5.193143-5.290667 17.944381 0 19.675429 4.729905 1.755429 4.217905-4.047238 11.068952-3.486476 6.875429 0 15.823238 4.632381 20.553143 2.291809 5.290667-2.29181 10.532571-6.948571 13.677714-1.731047 3.705905 5.193143 17.383619 26.624 10.532572 31.865905-6.875429 5.802667-14.750476-8.094476-33.718857 1.755428-18.968381 9.289143-21.601524 10.435048-29.988572 19.69981-8.46019 9.849905-15.286857 9.264762-22.137905 10.971428-6.314667 1.755429-21.065143 13.360762-26.867809 10.48381-6.290286-2.925714-9.45981-11.02019-17.895619-8.118857-8.43581 3.486476-4.729905 29.549714-11.044572 37.083428-5.802667 6.948571-31.061333 20.845714-35.791238 22.040381-4.729905 0.585143-9.45981-2.901333-13.165714-1.145905-4.242286 2.29181-7.387429 2.29181-14.750476 3.486477-6.875429 1.755429-16.335238 0.585143-24.210286 3.486476-7.899429 2.31619-24.234667 12.751238-29.500952 8.704-5.290667-3.486476-17.408-5.193143-25.84381-9.849905-8.43581-4.632381-30.549333-17.383619-40.009143-19.139048-8.97219-1.755429-34.230857-1.145905-42.666666-4.047238-8.045714-2.901333-21.699048 4.632381-26.428953-12.190476-4.217905-16.798476 0-33.03619-5.802666-33.03619s-9.45981-2.901333-13.677715-7.558096c-4.778667-5.193143-17.408-17.310476-28.476952-17.310476-11.093333 0-19.504762-3.510857-15.823238-15.067428 3.169524-12.141714 10.020571-24.33219 8.435809-32.426667-1.048381-8.118857-12.092952-25.502476-17.383619-27.843048-5.241905-2.925714-14.750476-13.945905-15.774476-18.578285-0.560762-4.047238-1.584762-10.410667-1.584762-10.99581-4.729905 0-12.092952 0.585143-14.726095 4.047238-2.657524 4.047238-18.968381 15.62819-18.968381 15.628191s-8.97219 10.99581-9.48419 14.506666c-0.536381 2.901333-6.339048 19.139048-9.508572 19.675429-3.145143 0-28.964571-16.774095-34.767238-8.679619-5.802667 7.558095-17.383619 42.325333-22.625524 42.910476-4.729905 0.609524-31.597714-6.38781-34.791619 5.802667-3.169524 12.141714 2.121143 20.23619 1.072762 27.233523-1.584762 6.948571-5.802667 22.601143-7.387428 22.601143-2.072381 0-11.068952 6.38781-11.068953 9.849905 0 4.047238-2.657524 14.482286-8.435809 15.628191-5.753905 0.609524-13.141333 4.632381-17.871238 5.802666-4.778667 1.145905-16.871619 1.145905-21.089524 4.632381-4.217905 3.462095-9.99619-0.585143-13.165715 5.802667-3.169524 6.948571-7.899429 13.897143-13.702095 14.506667-5.802667 0-3.705905-6.948571-12.678095-6.948572-9.435429 0.560762-22.089143 13.897143-22.089143 13.897143S0 464.822857 0 467.72419c0 2.876952 2.633143 10.971429 3.705905 14.482286 1.584762 3.462095 8.411429 6.948571 7.387428 10.99581-0.512 4.047238 3.705905 15.043048 0.487619 19.699809-3.145143 4.047238-7.875048 10.971429-5.266285 13.336381 2.633143 1.755429 6.851048 0.585143 7.363047 4.047238 0 4.047238 1.072762 18.529524 4.217905 22.040381 3.657143 3.486476 27.40419 12.190476 29.013333 15.652572 1.048381 2.876952 10.50819 23.722667 9.996191 27.818666 0 4.047238-2.096762 5.802667-2.096762 15.043048 0 9.289143 2.096762 13.897143 0 17.944381-2.072381 4.047238-4.729905 16.237714-8.43581 16.237714-3.657143 0-6.314667-5.193143-6.851047-0.585143 0 4.047238-2.096762 26.648381 0.487619 29.549715 2.096762 2.29181 21.625905 15.62819 22.649905 23.722666 1.072762 8.704 4.217905 12.166095 7.363047 11.605334 3.169524-0.609524 7.899429-4.047238 13.702095-1.755429 6.290286 2.31619 12.092952 8.704 13.165715 10.99581 1.584762 2.31619 9.99619 8.704 12.678095 9.289142 2.633143 1.170286 13.165714 14.506667 19.456 21.455239 6.314667 7.558095 9.99619 16.237714 19.504762 17.94438 9.99619 1.731048 25.258667-1.755429 28.964571 0 3.169524 2.29181 8.43581 5.193143 7.363048 8.094477-1.560381 3.486476-1.048381 10.99581 1.584762 10.995809 3.169524-0.585143 5.802667-10.99581 7.363047-12.141714 1.584762-1.145905 5.290667-6.948571 9.484191-5.217524 3.705905 1.170286 9.99619 7.558095 14.238476 7.558095 4.217905 0 11.580952-0.609524 13.653333 1.145905 1.584762 1.755429 5.827048 20.845714 7.899429 22.601143 2.096762 1.731048 19.504762-1.755429 25.283048-5.217524 5.290667-3.486476 25.84381-19.675429 31.061333-22.016 4.729905-2.31619 10.532571 0 12.117333 0.585143s16.822857 8.704 18.456381 8.704c1.072762 0 8.94781-12.190476 13.677715-10.99581 4.729905 0.585143 12.678095 17.944381 11.093333 33.036191-2.096762 15.043048-10.020571 36.522667-18.968381 46.908952-8.94781 9.849905-9.45981 3.510857-12.117333 14.506667-2.633143 10.435048-3.169524 13.336381 0 13.336381 2.657524 0.609524 28.988952-2.29181 28.42819 0-0.487619 2.29181-7.875048 9.289143-5.778286 12.751238 1.560381 4.047238 5.266286 5.193143 4.217905 13.336381-1.584762 8.094476-5.802667 21.455238-2.657524 22.601143 2.657524 0.585143 7.899429-1.170286 9.45981 1.731047 1.584762 2.925714 4.729905 12.190476 7.387428 10.99581 2.633143-1.731048 16.335238-5.778286 16.335239-5.778286s0 2.29181-1.584762 4.632381c-2.096762 2.31619-4.217905 4.047238-3.169524 5.802667 0 0 6.339048 4.047238 10.020571 3.486476 3.169524-1.145905 2.096762-5.802667 2.096762-5.802667s-1.584762-12.726857 3.705905-15.043047c5.290667-2.29181 7.875048-10.971429 20.553143-10.971429 12.653714 0.585143 15.798857 1.731048 24.210285-2.31619 8.43581-3.486476 17.895619-13.336381 20.016762-13.336381 2.096762 0.585143 7.899429 5.778286 11.093334 5.778286 3.705905 0 15.262476-1.145905 16.335238 5.217523 0.487619 6.38781-6.875429 10.971429-5.802667 13.897143 1.048381 3.486476 20.528762 17.944381 20.528762 17.944381l4.242286 2.29181 4.217905 0.609523c1.048381 0 2.072381-0.609524 2.633142-0.609523 2.633143-2.29181 3.705905-4.632381 6.851048-1.145905 3.169524 4.047238 3.169524 5.802667 7.899429 5.802667 5.290667 0 11.068952-1.755429 8.435809 1.145904-2.633143 2.901333-11.093333 8.704-7.875048 11.580953 3.705905 2.925714 5.266286 3.510857 6.290286 6.948571 0.512 3.510857-2.072381 10.459429 3.705905 9.313524 5.802667-0.609524 5.290667-8.704 5.290667-8.704s-3.169524-6.948571 1.584762-12.190476c4.729905-5.193143 12.678095-11.605333 23.698285-12.751238 10.532571-1.145905 13.165714 1.755429 21.065143-3.486477 7.875048-4.632381 1.560381-5.217524 8.43581-6.948571 7.363048-1.145905 3.169524 5.193143 8.435809 4.632381 5.290667 0 6.314667-4.047238 8.43581-3.486476 2.657524 0.585143 8.43581 0 7.899428-4.047238 0-3.486476 0-11.605333 6.290286-10.99581 6.339048 0.585143 9.45981 4.632381 16.335238 3.486476 6.851048-1.731048 18.968381-9.849905 18.968381-12.141714 0-2.29181-4.729905-5.193143-0.512-9.289143 3.657143-4.632381 3.169524-2.31619 7.875048-2.925714a18.968381 18.968381 0 0 0 8.46019-2.876952s4.217905 2.901333 10.508191-7.558096c5.802667-10.435048 3.169524-16.237714 6.875428-14.482285 3.705905 2.31619 9.45981 2.31619 8.94781-2.29181-0.512-4.632381-4.217905-11.605333 0-12.190476 3.705905-0.609524 4.729905 4.632381 6.851047 1.145905 1.584762-4.047238-1.048381-8.094476 2.657524-5.193143 4.217905 2.29181 6.851048 5.778286 6.851048 2.901333 0-2.925714-2.633143-11.605333-1.048381-15.652571 2.072381-3.486476 7.875048-13.897143 3.705905-16.798476-4.217905-3.486476-6.314667-5.802667-2.657524-6.948572 3.705905-1.145905 5.802667 5.193143 7.899428 2.316191 2.072381-2.925714 4.729905-3.510857 5.802667-6.948572 0.487619-3.510857 8.43581-4.656762 8.435809-12.751238s2.072381-17.944381 6.851048-15.043048c4.729905 2.901333 6.314667 8.094476 9.45981 0.585143 3.657143-6.948571-8.43581-9.289143-3.169524-13.336381 5.315048-3.486476 4.242286-6.38781 4.242286-6.387809l-2.096762-2.925714s11.093333-12.726857 7.899428-15.018667c-3.657143-1.755429-6.314667-3.510857-6.314666-3.510857s-1.072762-6.38781-4.729905-6.38781c-4.217905 0-7.387429-4.047238-7.387429-7.558095 0.512-4.022857 7.899429 3.510857 11.093334 0 3.169524-3.486476 10.532571-8.094476 8.947809-12.141714-2.072381-4.632381-14.750476-16.237714-13.165714-20.845715 1.584762-4.047238 11.093333 7.558095 14.238476 2.316191 3.705905-5.193143-12.678095-15.652571-12.678095-20.845714 0-5.193143 0.536381-17.383619-5.778286-28.988953-6.314667-11.580952-20.041143-12.141714-18.968381-21.455238 1.072762-9.825524 9.99619-24.917333 16.822857-27.209143 6.875429-2.31619 17.92-5.802667 18.456381-9.313524 0.512-3.486476 1.072762-8.094476 1.072762-8.094476s2.096762-3.486476 4.729905-3.486476c2.657524 0 19.504762 4.047238 19.504762 0.585143 0.487619-3.486476-2.096762-8.679619-2.096762-8.679619s8.43581-4.632381 7.363047-7.558095c-0.512-2.901333-7.363048-4.632381-11.093333-4.047238-3.705905 0.609524-5.778286-2.901333-15.798857-3.486477-9.45981-0.609524-18.968381 11.580952-27.916191 11.580953s-8.43581-11.580952-8.435809-11.580953 1.560381-9.289143-4.242286-9.849904c-5.266286-0.609524-14.214095-4.632381-14.726095-10.99581-1.072762-6.38781 1.048381-17.383619 3.145143-16.798476 2.096762 0 11.580952 2.901333 11.580952 2.901333l11.605334-7.558095s6.314667 8.704 12.092952 10.459429c5.290667 1.145905 8.46019-9.849905 8.46019-9.849905s-10.020571-3.486476-8.46019-8.704c1.072762-5.193143 2.096762-8.679619 8.46019-8.679619 6.851048 0 7.363048-5.217524 7.363048-5.217524s5.802667-8.094476 12.678095-11.580952c6.826667-2.925714 12.653714-4.047238 12.653715 0 0 4.632381-1.072762 10.971429-1.072762 10.971428s3.705905 4.071619 2.633143 6.412191c-0.487619 2.31619-12.653714 8.094476-9.996191 13.897142 3.145143 5.802667 3.657143 9.849905 1.048381 10.99581-2.633143 0.609524-3.169524 0.609524-3.169524 0.609524s-11.580952 4.047238-7.875047 9.825524c4.217905 6.41219 14.238476-9.264762 14.238476-9.264762s10.532571-11.02019 18.968381-12.751238c8.43581-1.755429 18.456381-6.41219 23.186285-2.925715l2.657524-9.264762s9.99619-8.118857 14.750476-11.605333l3.145143-1.755429c3.169524-1.731048 6.314667-1.731048 8.43581-3.486476 3.169524-1.755429 13.165714-19.139048 17.383619-17.944381 2.096762 1.145905 4.242286 2.901333 6.339047 5.193143 2.072381 1.755429 4.193524 3.510857 7.363048 2.925714 5.607619-1.121524 5.12-11.53219 5.12-11.53219h-0.536381z" fill="#D8D8D8" /><path d="M519.899429 988.111238c-2.096762 0-7.899429-0.585143-8.94781 0.609524-1.072762 1.755429-3.169524 7.558095-4.729905 8.704-1.584762 1.145905-4.217905 1.731048-5.290666 5.193143-1.072762 3.486476-1.584762 10.435048 0 12.141714s4.729905 9.289143 9.99619 8.704c4.754286-1.145905 8.46019-3.510857 13.702095-3.510857 5.241905 0 12.678095-4.632381 12.117334-6.38781-0.512-2.29181-4.242286-4.047238-3.730286-6.387809 0.512-2.29181 5.290667-4.632381 6.875429-6.948572 1.584762-2.29181 2.096762-3.486476 5.290666-5.193142 3.145143-1.170286 3.145143-5.802667 2.072381-7.558096-0.487619-1.731048-7.875048-2.901333-12.653714-2.291809-4.169143 0.633905-13.116952 2.925714-14.701714 2.925714zM752.201143 866.986667s-2.633143-4.632381-11.580953-2.316191c-8.97219 2.31619-13.702095 11.605333-15.262476 16.822857-2.096762 5.168762-12.117333 26.087619-11.093333 28.964572 1.584762 2.901333 3.169524 5.193143 2.657524 8.094476-0.512 2.925714-2.096762 12.141714 0.487619 16.798476 2.657524 4.047238 5.802667 8.704 7.387428 7.558095 1.584762-1.170286 5.802667-16.822857 8.43581-20.309333 2.096762-2.901333 10.532571-12.141714 11.093333-20.845714 0.487619-8.094476-2.096762-9.264762 2.072381-16.237715 3.705905-7.558095 7.387429-10.435048 7.387429-12.190476 0-1.706667-1.584762-6.339048-1.584762-6.339047z" fill="#A4A0A0" /></svg>
